<svg preserveAspectRatio="none" width="168.496" height="64.9956" overflow="visible" style="display: block;" viewBox="0 0 168.496 64.9956" fill="none" xmlns="http://www.w3.org/2000/svg">
<g id="Group 60064">
<path id="Vector" d="M0.406223 0V64.9956" stroke="var(--stroke-0, white)" stroke-width="0.812445"/>
<g id="Frame 2199661">
<path id="Vector_2" d="M21.3963 59.4933L21.5473 30.9197H25.997L25.856 42.1182C26.9701 39.1383 29.1497 37.4879 32.5333 37.4879C37.261 37.4879 40.1331 40.5595 40.1296 46.3359L40.122 59.4933H35.5333L35.5408 46.5651C35.5429 43.1726 34.107 41.3847 31.1406 41.3847C27.7568 41.3847 25.8548 44.1812 25.8519 49.1324L25.846 59.4933H21.3963Z" fill="var(--fill-0, white)"/>
<path id="Vector_3" d="M54.0374 59.4951C47.3166 59.4951 43.1476 55.0941 43.1513 48.4466C43.1552 41.7533 47.6541 37.123 53.865 37.123C60.3077 37.123 64.1524 41.3866 64.1485 48.2174L64.1475 49.8678H47.6929C47.9688 53.5812 50.3315 55.8276 54.0396 55.8276C57.7476 55.8276 59.3709 54.0396 60.2064 51.9307L64.2382 53.4895C62.7529 56.8361 59.6459 59.4951 54.0374 59.4951ZM47.6022 46.4753H59.468C59.2847 42.7619 57.2001 40.7906 53.7702 40.7906C50.4792 40.7906 48.0677 42.9453 47.6022 46.4753Z" fill="var(--fill-0, white)"/>
<path id="Vector_4" d="M74.152 59.495C69.4705 59.495 66.5982 56.9736 66.6005 53.2602C66.6031 48.4007 70.2655 47.3004 75.133 46.246C78.8415 45.4666 81.1128 45.2374 81.5772 44.0455V43.7245C81.5782 41.9366 80.2349 40.5613 76.8977 40.5613C73.653 40.5613 71.8909 42.0283 71.704 44.4581L71.7038 44.7331H67.1153C67.257 39.8736 71.1523 36.9396 76.9461 36.9396C82.5546 36.9396 85.8904 39.4152 85.8871 44.9165L85.881 55.5983L85.9253 58.9449H81.522L81.524 55.69C80.0392 58.2573 77.3038 59.495 74.152 59.495ZM74.9883 56.0567C78.1864 56.0567 81.2003 54.4521 81.5735 50.2345L81.5751 47.5755C80.2304 48.4924 77.9125 48.8591 75.7801 49.3634C73.2767 50.0052 71.2369 50.7846 71.2356 53.0767C71.2346 54.8647 72.5781 56.0567 74.9883 56.0567Z" fill="var(--fill-0, white)"/>
<path id="Vector_5" d="M98.1385 59.4944C92.53 59.4944 88.3146 55.3226 88.3185 48.3084C88.3226 41.4318 92.4967 36.939 98.1979 36.939C101.211 36.939 103.667 38.3602 105.241 40.6524L105.349 30.4961H109.799L109.68 59.0361H105.23L105.232 55.8727C103.701 58.165 101.198 59.4944 98.1385 59.4944ZM99.2996 55.6435C103.054 55.6435 105.466 52.6178 105.468 48.3084L105.469 47.9417C105.471 43.6782 103.155 40.79 99.3082 40.79C95.6 40.79 93.0954 43.4948 93.0927 48.1709L93.0925 48.4918C93.0899 53.1222 95.545 55.6435 99.2996 55.6435Z" fill="var(--fill-0, white)"/>
<path id="Vector_6" d="M123.735 59.4951C117.292 59.4951 112.845 54.9566 112.849 48.3549C112.852 41.7533 117.398 37.123 123.84 37.123C130.283 37.123 134.776 41.7533 134.773 48.3549C134.769 54.8649 130.177 59.4951 123.735 59.4951ZM123.737 55.6901C127.677 55.6901 130.181 52.8934 130.184 48.4925L130.184 48.3091C130.187 43.7705 127.732 40.9281 123.838 40.9281C119.945 40.9281 117.44 43.7705 117.438 48.3091L117.437 48.4925C117.435 52.9394 119.844 55.6901 123.737 55.6901Z" fill="var(--fill-0, white)"/>
<path id="Vector_7" d="M144.966 59.4952C140.053 59.4952 137.135 56.1486 137.138 50.6473L137.146 37.49H141.734L141.727 50.4181C141.725 53.7647 143.207 55.5985 146.173 55.5985C149.789 55.5985 151.459 52.5268 151.462 47.8508L151.468 37.49H156.01L155.998 59.1285H151.455L151.457 55.4151C150.251 58.0741 148.118 59.4952 144.966 59.4952Z" fill="var(--fill-0, white)"/>
<path id="Vector_8" d="M164.405 59.4956C160.419 59.3121 159.4 57.5241 159.356 54.0858L159.363 41.7079L159.383 40.3108L159.363 38.9207L159.365 37.857L159.368 33.6393L163.772 30.9344L163.768 37.857H168.496L168.494 41.7079H163.766L163.759 53.5357C163.759 54.9111 164.314 55.5529 165.705 55.5529H168.3L168.298 59.4956H164.405Z" fill="var(--fill-0, white)"/>
</g>
<path id="Vector_9" d="M36.4955 9.57214L39.767 17.8651L39.9702 18.3798H41.1323L41.3305 17.8544L44.4623 9.57214H44.7455L39.768 22.2577C39.586 22.7137 39.3997 23.1167 39.2094 23.4686L39.1996 23.4862L39.1918 23.5038C39.038 23.8248 38.8539 24.0765 38.6469 24.2723L38.6303 24.2889L38.6147 24.3055C38.437 24.494 38.2123 24.643 37.9243 24.7469L37.9047 24.7538L37.8862 24.7616C37.63 24.8684 37.2726 24.9383 36.7866 24.9384C36.548 24.9384 36.2901 24.9245 36.0131 24.8954H36.0141L36.0131 24.8944L36.0268 24.8036C36.228 24.825 36.4419 24.8358 36.6664 24.8358C37.418 24.8358 38.1321 24.6233 38.6254 24.0468C38.9925 23.6176 39.2823 23.0779 39.5121 22.4579L39.5141 22.452L40.2807 20.3407L40.3881 20.0448L40.268 19.7548L36.0825 9.57214H36.4955ZM27.3539 9.28406C28.1372 9.28406 28.8264 9.42003 29.433 9.67664L29.4428 9.68054L29.4536 9.68445C30.0877 9.93313 30.6105 10.2785 31.0346 10.7167C31.4681 11.1645 31.8106 11.6979 32.061 12.3251C32.3067 12.9406 32.434 13.6214 32.434 14.3759C32.434 15.1303 32.3067 15.8112 32.061 16.4266C31.8106 17.0535 31.4679 17.5864 31.0346 18.0341L31.0258 18.0438C30.6084 18.489 30.1082 18.8419 29.518 19.1034C28.9397 19.3439 28.317 19.4666 27.642 19.4667C27.0854 19.4667 26.5844 19.3911 26.1332 19.2479C26.4944 19.3243 26.8698 19.3641 27.2582 19.3641C27.9585 19.3641 28.6141 19.2431 29.2104 18.9843L29.2221 18.9794C29.8055 18.7154 30.3165 18.3612 30.7446 17.913L30.7504 17.9061L30.7563 17.9003C31.1819 17.4351 31.5017 16.9 31.7133 16.3026L31.7123 16.3016C31.9372 15.6955 32.0473 15.0516 32.0473 14.3759C32.0473 13.7801 31.9629 13.2119 31.7866 12.6776L31.7055 12.451C31.4941 11.8474 31.1751 11.3141 30.7446 10.8632H30.7436C30.3196 10.4035 29.8124 10.0488 29.2299 9.79968H29.2309C28.6294 9.51856 27.9663 9.38757 27.2582 9.38757C26.5852 9.38759 25.9501 9.50668 25.3637 9.75574C25.3954 9.73882 25.4273 9.7221 25.4594 9.70593C26.0277 9.4279 26.6551 9.28409 27.3539 9.28406ZM22.4692 2.66101V11.204H23.478C23.1875 11.5778 22.9572 11.9979 22.7846 12.4589L22.7817 12.4657L22.7797 12.4725C22.5696 13.0658 22.4692 13.7029 22.4692 14.3759C22.4692 15.0489 22.5695 15.6906 22.7768 16.2948L22.7817 16.3094L22.7875 16.3241C22.9052 16.6285 23.0495 16.9165 23.2192 17.1874H22.4692V19.1786H22.226V2.66101H22.4692Z" fill="var(--fill-0, white)" stroke="var(--stroke-0, white)" stroke-width="1.62489"/>
</g>
</svg>
