<svg preserveAspectRatio="none" width="982" height="1232" overflow="visible" style="display: block;" viewBox="0 0 982 1232" fill="none" xmlns="http://www.w3.org/2000/svg">
<g id="Union" opacity="0.1">
<mask id="path-1-outside-1_0_15" maskUnits="userSpaceOnUse" x="0" y="0" width="982" height="1232" fill="black">
<rect fill="white" width="982" height="1232"/>
<path d="M482.054 24C623.406 24.0001 689.609 71.0241 752.233 132.517C801.353 180.749 883.497 191.15 929.592 193.393C945.277 194.156 958 206.709 958 222.412V1138C958 1176.66 926.66 1208 888 1208H94C55.3401 1208 24 1176.66 24 1138V562H24.0586C24.0391 443.145 24.0193 321.334 24.0039 220.891C24.0016 205.797 35.7786 193.386 50.7578 191.527C100.07 185.41 175.124 168.484 215.452 132.517C276.287 78.2584 340.701 24 482.054 24Z"/>
</mask>
<path d="M482.054 24C623.406 24.0001 689.609 71.0241 752.233 132.517C801.353 180.749 883.497 191.15 929.592 193.393C945.277 194.156 958 206.709 958 222.412V1138C958 1176.66 926.66 1208 888 1208H94C55.3401 1208 24 1176.66 24 1138V562H24.0586C24.0391 443.145 24.0193 321.334 24.0039 220.891C24.0016 205.797 35.7786 193.386 50.7578 191.527C100.07 185.41 175.124 168.484 215.452 132.517C276.287 78.2584 340.701 24 482.054 24Z" fill="var(--fill-0, white)"/>
<path d="M482.054 24V0V0V24ZM752.233 132.517L769.048 115.392V115.392L752.233 132.517ZM929.592 193.393L930.758 169.421V169.421L929.592 193.393ZM958 222.412H982V222.412L958 222.412ZM958 1138H982V1138H958ZM24 1138H0V1138H24ZM24 562V538H0V562H24ZM24.0586 562V586H48.0625L48.0586 561.996L24.0586 562ZM24.0039 220.891L0.00390625 220.894L24.0039 220.891ZM50.7578 191.527L47.8032 167.71L47.8031 167.71L50.7578 191.527ZM215.452 132.517L199.477 114.605V114.605L215.452 132.517ZM482.054 24V48C549.961 48 598.29 59.2711 636.594 76.9826C675.012 94.7469 704.922 119.696 735.418 149.641L752.233 132.517L769.048 115.392C736.92 83.8447 702.416 54.5355 656.739 33.4147C610.948 12.241 555.498 2.86102e-05 482.054 0V24ZM752.233 132.517L735.418 149.641C763.995 177.702 801.128 193.85 835.691 203.343C870.449 212.89 904.419 216.196 928.425 217.364L929.592 193.393L930.758 169.421C908.671 168.346 878.521 165.33 848.404 157.058C818.091 148.732 789.591 135.564 769.048 115.392L752.233 132.517ZM929.592 193.393L928.425 217.364C932.17 217.546 934 220.34 934 222.412L958 222.412L982 222.412C982 193.077 958.383 170.765 930.758 169.421L929.592 193.393ZM958 222.412H934V1138H958H982V222.412H958ZM958 1138H934C934 1163.41 913.405 1184 888 1184V1208V1232C939.915 1232 982 1189.91 982 1138H958ZM888 1208V1184H94V1208V1232H888V1208ZM94 1208V1184C68.5949 1184 48 1163.41 48 1138H24H0C1.90735e-06 1189.91 42.0852 1232 94 1232V1208ZM24 1138H48V562H24H0V1138H24ZM24 562V586H24.0586V562V538H24V562ZM24.0586 562L48.0586 561.996C48.0391 443.141 48.0193 321.33 48.0039 220.887L24.0039 220.891L0.00390625 220.894C0.0193462 321.338 0.0391464 443.149 0.0585938 562.004L24.0586 562ZM24.0039 220.891L48.0039 220.887C48.0036 218.81 49.8359 215.826 53.7125 215.345L50.7578 191.527L47.8031 167.71C21.7213 170.946 -0.000413895 192.783 0.00390625 220.894L24.0039 220.891ZM50.7578 191.527L53.7124 215.345C79.4228 212.155 112.014 206.138 143.721 196.096C175.028 186.18 207.589 171.689 231.427 150.428L215.452 132.517L199.477 114.605C182.988 129.312 157.857 141.268 129.227 150.336C100.997 159.278 71.4047 164.782 47.8032 167.71L50.7578 191.527ZM215.452 132.517L231.427 150.428C261.821 123.32 290.999 98.2088 329.15 79.4484C366.911 60.8792 414.676 48 482.054 48V24V0C408.079 0 352.961 14.2499 307.968 36.3746C263.365 58.3079 229.919 87.4554 199.477 114.605L215.452 132.517Z" fill="var(--stroke-0, white)" mask="url(#path-1-outside-1_0_15)"/>
</g>
</svg>
