<svg preserveAspectRatio="none" width="934" height="1184" overflow="visible" style="display: block;" viewBox="0 0 934 1184" fill="none" xmlns="http://www.w3.org/2000/svg">
<path id="Union" d="M458.054 0C599.406 5.41482e-05 665.609 47.0241 728.233 108.517C777.353 156.749 859.497 167.15 905.592 169.393C921.277 170.156 934 182.709 934 198.412V1114C934 1152.66 902.66 1184 864 1184H70C31.3401 1184 8.94027e-07 1152.66 0 1114V538H0.0585938C0.0391461 419.145 0.0193464 297.334 0.00390625 196.891C0.001586 181.797 11.7786 169.386 26.7578 167.527C76.0697 161.41 151.124 144.484 191.452 108.517C252.287 54.2584 316.701 0 458.054 0Z" fill="var(--fill-0, white)"/>
</svg>
