<svg preserveAspectRatio="none" width="1022" height="1272" overflow="visible" style="display: block;" viewBox="0 0 1022 1272" fill="none" xmlns="http://www.w3.org/2000/svg">
<g id="Union" opacity="0.06">
<mask id="path-1-outside-1_0_18" maskUnits="userSpaceOnUse" x="0" y="0" width="1022" height="1272" fill="black">
<rect fill="white" width="1022" height="1272"/>
<path d="M502.054 44C643.406 44.0001 709.609 91.0241 772.233 152.517C821.353 200.749 903.497 211.15 949.592 213.393C965.277 214.156 978 226.709 978 242.412V1158C978 1196.66 946.66 1228 908 1228H114C75.3401 1228 44 1196.66 44 1158V582H44.0586C44.0391 463.145 44.0193 341.334 44.0039 240.891C44.0016 225.797 55.7786 213.386 70.7578 211.527C120.07 205.41 195.124 188.484 235.452 152.517C296.287 98.2584 360.701 44 502.054 44Z"/>
</mask>
<path d="M502.054 44C643.406 44.0001 709.609 91.0241 772.233 152.517C821.353 200.749 903.497 211.15 949.592 213.393C965.277 214.156 978 226.709 978 242.412V1158C978 1196.66 946.66 1228 908 1228H114C75.3401 1228 44 1196.66 44 1158V582H44.0586C44.0391 463.145 44.0193 341.334 44.0039 240.891C44.0016 225.797 55.7786 213.386 70.7578 211.527C120.07 205.41 195.124 188.484 235.452 152.517C296.287 98.2584 360.701 44 502.054 44Z" fill="var(--fill-0, white)"/>
<path d="M502.054 44L502.054 0H502.054V44ZM772.233 152.517L803.061 121.121L803.061 121.121L772.233 152.517ZM949.592 213.393L951.73 169.445V169.445L949.592 213.393ZM978 242.412H1022V242.412L978 242.412ZM978 1158H1022V1158H978ZM44 1158H0V1158H44ZM44 582V538H0V582H44ZM44.0586 582V626H88.0658L88.0586 581.993L44.0586 582ZM44.0039 240.891L0.00390625 240.897L44.0039 240.891ZM70.7578 211.527L65.3411 167.862L65.3408 167.862L70.7578 211.527ZM235.452 152.517L206.165 119.68V119.68L235.452 152.517ZM502.054 44L502.054 88C567.654 88 613.016 98.867 648.2 115.136C683.594 131.502 711.589 154.634 741.406 183.912L772.233 152.517L803.061 121.121C770.253 88.9067 733.835 57.7807 685.133 35.2614C636.222 12.6451 577.806 3.05176e-05 502.054 0L502.054 44ZM772.233 152.517L741.406 183.912C773.33 215.259 814.06 232.65 850.393 242.629C887.085 252.707 922.647 256.134 947.453 257.341L949.592 213.393L951.73 169.445C930.442 168.409 901.885 165.513 873.701 157.772C845.159 149.932 820.256 138.006 803.061 121.121L772.233 152.517ZM949.592 213.393L947.453 257.341C941.247 257.039 934 251.7 934 242.413L978 242.412L1022 242.412C1022 201.718 989.306 171.273 951.73 169.445L949.592 213.393ZM978 242.412H934V1158H978H1022V242.412H978ZM978 1158H934C934 1172.36 922.359 1184 908 1184V1228V1272C970.96 1272 1022 1220.96 1022 1158H978ZM908 1228V1184H114V1228V1272H908V1228ZM114 1228V1184C99.6406 1184 88 1172.36 88 1158H44H0C0 1220.96 51.0395 1272 114 1272V1228ZM44 1158H88V582H44H0V1158H44ZM44 582V626H44.0586V582V538H44V582ZM44.0586 582L88.0586 581.993C88.0391 463.138 88.0193 341.327 88.0039 240.884L44.0039 240.891L0.00390625 240.897C0.0193481 341.341 0.0391464 463.153 0.0585938 582.007L44.0586 582ZM44.0039 240.891L88.0039 240.884C88.0053 249.655 81.5503 254.526 76.1748 255.193L70.7578 211.527L65.3408 167.862C30.0069 172.245 -0.00208282 201.938 0.00390625 240.897L44.0039 240.891ZM70.7578 211.527L76.1746 255.193C102.764 251.894 136.604 245.664 169.76 235.162C202.183 224.893 237.839 209.346 264.739 185.354L235.452 152.517L206.165 119.68C192.738 131.655 170.703 142.555 143.188 151.27C116.407 159.752 88.0638 165.043 65.3411 167.862L70.7578 211.527ZM235.452 152.517L264.739 185.354C295.114 158.263 322.513 134.834 357.975 117.396C392.724 100.308 437.424 88 502.054 88V44V0C425.331 0 367.148 14.821 319.143 38.4271C271.851 61.6825 236.626 92.512 206.165 119.68L235.452 152.517Z" fill="var(--stroke-0, white)" mask="url(#path-1-outside-1_0_18)"/>
</g>
</svg>
