<svg preserveAspectRatio="none" width="96" height="96" overflow="visible" style="display: block;" viewBox="0 0 96 96" fill="none" xmlns="http://www.w3.org/2000/svg">
<g id="Frame">
<path id="Vector" d="M78.834 30.6015C79.4628 29.9729 80.546 29.9088 81.1828 30.6037C84.9136 34.673 86.9784 37.686 87.6584 41.0228C88.0496 42.9428 88.1052 44.8968 87.8228 46.7976C87.0596 51.9344 82.8976 56.0964 74.5736 64.4204L64.4204 74.5736C56.0964 82.8976 51.9344 87.0596 46.7976 87.8228C44.8968 88.1052 42.9428 88.0496 41.0228 87.6584C37.6864 86.9784 34.6736 84.914 30.6051 81.184C29.9094 80.5464 29.9737 79.462 30.603 78.8328C34.1077 75.328 33.9412 69.4792 30.231 65.7688C26.5209 62.0588 20.6721 61.8924 17.1673 65.3972C16.538 66.0264 15.4536 66.0908 14.8158 65.3948C11.0858 61.3264 9.02144 58.3136 8.34156 54.9772C7.95036 53.0572 7.89472 51.1032 8.17716 49.2024C8.94052 44.0656 13.1024 39.9035 21.4263 31.5797L31.5797 21.4263C39.9035 13.1024 44.0656 8.94052 49.2024 8.17712C51.1032 7.89472 53.0572 7.95036 54.9772 8.34156C58.314 9.02152 61.3272 11.0863 65.3964 14.8171C66.0912 15.4542 66.0272 16.5373 65.3984 17.1659C61.8936 20.6706 62.0604 26.5194 65.7704 30.2296C69.4804 33.9397 75.3296 34.1062 78.834 30.6015Z" stroke="var(--stroke-0, white)" stroke-width="6" stroke-linejoin="round"/>
<path id="Vector_2" d="M76 60L36 20" stroke="var(--stroke-0, white)" stroke-width="6" stroke-linejoin="round"/>
</g>
</svg>
