<svg preserveAspectRatio="none" width="96" height="96" overflow="visible" style="display: block;" viewBox="0 0 96 96" fill="none" xmlns="http://www.w3.org/2000/svg">
<g id="Frame">
<path id="Vector" d="M54.4708 85.468C52.7364 87.092 50.4176 88 48.0044 88C45.5912 88 43.2728 87.092 41.538 85.468C25.6521 70.504 4.36304 53.7876 14.7451 29.5186C20.3585 16.3966 33.8334 8 48.0044 8C62.1756 8 75.6504 16.3966 81.264 29.5186C91.6328 53.7572 70.396 70.5556 54.4708 85.468Z" stroke="var(--stroke-0, white)" stroke-width="6"/>
<path id="Vector_2" d="M62 44C62 51.732 55.732 58 48 58C40.268 58 34 51.732 34 44C34 36.268 40.268 30 48 30C55.732 30 62 36.268 62 44Z" stroke="var(--stroke-0, white)" stroke-width="6"/>
</g>
</svg>
