<svg preserveAspectRatio="none" width="39" height="39" overflow="visible" style="display: block;" viewBox="0 0 39 39" fill="none" xmlns="http://www.w3.org/2000/svg">
<g id="Frame">
<path id="Vector" fill-rule="evenodd" clip-rule="evenodd" d="M18.6875 2.03125C20.3734 2.03125 21.9866 2.34244 23.4728 2.91049L23.3454 3.25481C23.0453 4.06572 22.8373 4.58092 22.717 4.84196C22.4559 4.96218 21.9408 5.1703 21.1299 5.47035L19.9971 5.88949C18.7218 6.36144 17.875 7.57757 17.875 8.9375C17.875 10.2974 18.7218 11.5136 19.9971 11.9855L21.1299 12.4046C21.9408 12.7047 22.4559 12.9128 22.717 13.0331C22.8373 13.2941 23.0453 13.8093 23.3454 14.6202L23.7645 15.7529C24.2364 17.0283 25.4525 17.8751 26.8125 17.8751C28.1725 17.8751 29.3886 17.0283 29.8605 15.7529L30.2796 14.6202C30.5797 13.8093 30.7877 13.2941 30.908 13.0331C31.0856 12.9513 31.3807 12.8288 31.8066 12.6644C31.9948 13.5592 32.0938 14.4868 32.0938 15.4375C32.0938 20.4782 29.3119 24.8689 25.1997 27.1585L25.0217 28.2263C24.7279 29.9893 23.2026 31.2815 21.4152 31.2815H15.795C14.0077 31.2815 12.4824 29.9893 12.1885 28.2263L11.9934 27.0555C7.98128 24.7387 5.28125 20.4034 5.28125 15.4375C5.28125 8.03343 11.2834 2.03125 18.6875 2.03125ZM26.8125 2.03125C27.3224 2.03125 27.7786 2.34878 27.9555 2.82705L28.3746 3.95972C28.9629 5.54954 29.1506 5.98148 29.4595 6.29047C29.7685 6.59947 30.2005 6.78709 31.7904 7.37537L32.923 7.79449C33.4012 7.97147 33.7188 8.42753 33.7188 8.9375C33.7188 9.44747 33.4012 9.90353 32.923 10.0805L31.7904 10.4996C30.2005 11.0879 29.7685 11.2755 29.4595 11.5845C29.1506 11.8935 28.9629 12.3255 28.3746 13.9153L27.9555 15.048C27.7786 15.5262 27.3224 15.8438 26.8125 15.8438C26.3026 15.8438 25.8464 15.5262 25.6695 15.048L25.2504 13.9153C24.6621 12.3255 24.4745 11.8935 24.1655 11.5845C23.8565 11.2755 23.4245 11.0879 21.8346 10.4996L20.702 10.0805C20.2238 9.90353 19.9062 9.44747 19.9062 8.9375C19.9062 8.42753 20.2238 7.97147 20.702 7.79449L21.8346 7.37537C23.4245 6.78709 23.8565 6.59947 24.1655 6.29047C24.4745 5.98148 24.6621 5.54954 25.2504 3.95972L25.6695 2.82705C25.8464 2.34878 26.3026 2.03125 26.8125 2.03125ZM14.2188 33.3126V34.1247C14.2188 35.6953 15.4919 36.9685 17.0625 36.9685H20.3125C21.8831 36.9685 23.1562 35.6953 23.1562 34.1247V33.3126H14.2188Z" fill="var(--fill-0, white)"/>
</g>
</svg>
