<svg preserveAspectRatio="none" width="198" height="27.8657" overflow="visible" style="display: block;" viewBox="0 0 198 27.8657" fill="none" xmlns="http://www.w3.org/2000/svg">
<g id="Group 1000007478">
<g id="Group 1000007436">
<path id="Vector" d="M45.9159 10.1352C44.7114 2.55181 34.9281 -0.902941 25.7838 0.541702C21.0432 1.29307 14.8192 4.45347 10.0206 7.96245C9.86563 7.74556 9.61001 7.48219 9.21109 7.31952C8.45972 7.01355 0.671037 6.46745 0.086208 7.73394C-0.494748 8.99267 2.01111 13.8766 3.09943 15.0269C2.75086 15.7473 2.60368 16.4095 2.69276 16.9789C2.78572 17.5598 3.13042 18.1447 3.67651 18.7218C2.99873 20.1703 2.13117 25.5615 3.07232 26.5763C4.02122 27.5988 11.2599 24.6746 11.8796 24.1518C12.2592 23.8303 12.418 23.4391 12.4838 23.1796C14.8464 23.9 17.4258 24.4693 19.9626 24.814L21.9495 26.7738C22.6079 27.4245 23.491 27.804 24.4166 27.8195C25.4004 27.8389 26.8334 27.7885 28.5995 27.5097C30.6058 27.1921 32.43 26.677 33.6306 26.2897C34.5446 25.9953 35.3038 25.3524 35.7492 24.5003L36.791 22.4902C42.527 19.8178 46.7525 15.4258 45.9159 10.1352ZM27.1433 3.72534C34.7886 2.51308 40.7579 5.40402 42.7602 8.87039C40.0336 7.97184 36.1055 6.88574 27.883 8.18708C19.92 9.44969 12.7627 12.0059 8.27769 13.985C11.5581 10.6465 19.1183 4.9957 27.1433 3.72534ZM29.0759 21.4794C20.8883 22.7768 12.0462 19.6745 8.27769 17.6489C13.1074 18.0246 21.1013 18.226 29.2696 16.9324C36.1945 15.8363 40.8082 13.8627 43.287 12.1973C42.3342 16.0239 36.7871 20.2555 29.0798 21.4755L29.0759 21.4794Z" fill="var(--fill-0, white)"/>
</g>
<g id="Frame" clip-path="url(#clip0_0_11)">
<path id="Vector_2" d="M45.9158 10.0879C44.7114 2.50445 34.928 -0.950301 25.7838 0.494347C21.0432 1.24571 14.8192 4.40612 10.0205 7.91509C9.86563 7.6982 9.61001 7.43483 9.21109 7.27216C8.45972 6.9662 0.671037 6.4201 0.086208 7.68658C-0.494748 8.94531 2.01111 13.8292 3.09943 14.9795C2.75086 15.6999 2.60368 16.3622 2.69277 16.9316C2.78572 17.5125 3.13042 18.0973 3.67651 18.6744C2.99873 20.1229 2.13118 25.5142 3.07233 26.5289C4.02122 27.5514 11.2599 24.6272 11.8796 24.1043C12.2592 23.7829 12.4179 23.3917 12.4838 23.1322C14.8463 23.8526 17.4258 24.422 19.9627 24.7667L21.9495 26.7265C22.6079 27.3772 23.491 27.7567 24.4166 27.7721C25.4004 27.7915 26.8334 27.7411 28.5995 27.4623C30.6057 27.1448 32.4299 26.6297 33.6306 26.2424C34.5446 25.948 35.3038 25.305 35.7492 24.453L36.791 22.4429C42.527 19.7705 46.7525 15.3785 45.9158 10.0879ZM27.1432 3.67798C34.7886 2.46572 40.7578 5.35666 42.7603 8.82303C40.0336 7.92449 36.1055 6.83838 27.883 8.13973C19.9201 9.40233 12.7627 11.9585 8.27769 13.9377C11.5582 10.5991 19.1184 4.94834 27.1432 3.67798ZM29.0759 21.432C20.8883 22.7295 12.0462 19.6272 8.27769 17.6016C13.1074 17.9772 21.1013 18.1786 29.2696 16.885C36.1945 15.789 40.8082 13.8153 43.2869 12.15C42.3342 15.9766 36.7871 20.2082 29.0798 21.4281L29.0759 21.432Z" fill="var(--fill-0, white)"/>
</g>
<path id="Vector_3" d="M56.859 27.8225L57.0039 0.405923H61.2734L61.1381 11.151C62.2071 8.29177 64.2983 6.7082 67.5449 6.7082C72.0813 6.7082 74.837 9.6554 74.8338 15.1979L74.8264 27.8225H70.4235L70.4307 15.4178C70.4326 12.1627 69.0549 10.4472 66.2086 10.4472C62.962 10.4472 61.137 13.1305 61.1342 17.8812L61.1285 27.8225H56.859Z" fill="var(--fill-0, white)"/>
<path id="Vector_4" d="M88.1736 27.8242C81.7249 27.8242 77.7247 23.6013 77.7284 17.2231C77.7321 10.8008 82.0487 6.35804 88.0082 6.35804C94.19 6.35804 97.879 10.4489 97.8752 17.0031L97.8743 18.5867H82.086C82.3508 22.1497 84.6178 24.3052 88.1757 24.3052C91.7336 24.3052 93.2912 22.5896 94.0929 20.5662L97.9612 22.0618C96.5362 25.2729 93.555 27.8242 88.1736 27.8242ZM81.999 15.3316H93.3843C93.2085 11.7686 91.2083 9.87708 87.9172 9.87708C84.7595 9.87708 82.4457 11.9445 81.999 15.3316Z" fill="var(--fill-0, white)"/>
<path id="Vector_5" d="M107.477 27.8239C102.985 27.8239 100.229 25.4046 100.231 21.8415C100.233 17.1788 103.747 16.1231 108.418 15.1114C111.976 14.3636 114.156 14.1436 114.601 12.9999L114.601 12.692C114.602 10.9765 113.313 9.65684 110.111 9.65684C106.998 9.65684 105.307 11.0645 105.128 13.3958L105.128 13.6598H100.725C100.861 8.99702 104.598 6.18179 110.158 6.18179C115.539 6.18179 118.74 8.55714 118.737 13.8357L118.731 24.0849L118.773 27.296H114.548L114.55 24.1729C113.125 26.6362 110.501 27.8239 107.477 27.8239ZM108.279 24.5248C111.348 24.5248 114.239 22.9852 114.598 18.9383L114.599 16.387C113.309 17.2668 111.085 17.6187 109.039 18.1025C106.637 18.7184 104.68 19.4662 104.678 21.6656C104.677 23.3811 105.966 24.5248 108.279 24.5248Z" fill="var(--fill-0, white)"/>
<path id="Vector_6" d="M130.489 27.8242C125.108 27.8242 121.063 23.8213 121.067 17.0912C121.071 10.493 125.076 6.18213 130.546 6.18213C133.437 6.18213 135.794 7.54576 137.304 9.74516L137.408 8.83486e-05H141.677L141.564 27.3844H137.294L137.296 24.3492C135.827 26.5486 133.425 27.8242 130.489 27.8242ZM131.603 24.1292C135.206 24.1292 137.52 21.226 137.522 17.0912L137.523 16.7393C137.525 12.6484 135.303 9.87713 131.612 9.87713C128.054 9.87713 125.651 12.4724 125.648 16.9592L125.648 17.2671C125.645 21.7099 128.001 24.1292 131.603 24.1292Z" fill="var(--fill-0, white)"/>
<path id="Vector_7" d="M155.051 27.8242C148.869 27.8242 144.602 23.4694 144.606 17.1351C144.61 10.8008 148.971 6.35804 155.152 6.35804C161.334 6.35804 165.646 10.8008 165.642 17.1351C165.638 23.3814 161.233 27.8242 155.051 27.8242ZM155.053 24.1732C158.834 24.1732 161.237 21.4899 161.239 17.2671L161.239 17.0911C161.242 12.7363 158.886 10.009 155.15 10.009C151.415 10.009 149.011 12.7363 149.009 17.0911L149.009 17.2671C149.006 21.5339 151.317 24.1732 155.053 24.1732Z" fill="var(--fill-0, white)"/>
<path id="Vector_8" d="M175.422 27.8248C170.707 27.8248 167.907 24.6137 167.91 19.3351L167.918 6.71054H172.321L172.313 19.1152C172.312 22.3263 173.734 24.0858 176.58 24.0858C180.049 24.0858 181.652 21.1386 181.654 16.6518L181.66 6.71054H186.019L186.007 27.4729H181.648L181.65 23.9099C180.492 26.4612 178.446 27.8248 175.422 27.8248Z" fill="var(--fill-0, white)"/>
<path id="Vector_9" d="M194.07 27.825C190.246 27.6491 189.268 25.9335 189.226 22.6344L189.233 10.7577L189.252 9.41721L189.232 8.0834L189.235 7.06268L189.237 3.01578L193.464 0.420489L193.46 7.06268H197.996L197.994 10.7577H193.458L193.451 22.1066C193.45 23.4262 193.984 24.0421 195.318 24.0421H197.808L197.806 27.825H194.07Z" fill="var(--fill-0, white)"/>
</g>
<defs>
<clipPath id="clip0_0_11">
<rect width="46.0215" height="27.6926" fill="white" transform="translate(0 0.173091)"/>
</clipPath>
</defs>
</svg>
